/* XPM */
static char* pixmap[] = {
"32 16 3 1",
" 	c #000000",
"!	c #0000a8",
"#	c #dfdfdf",
"                                ",
"                                ",
"                !!!!!           ",
"                     !!!!!!!!!!!",
"   ####                        !",
"  ##  ##                       !",
"  ##      ####  ##  ##  ####   !",
"   ####  ##  ## ##  ## ##  ##  !",
"      ## ##  ## ##  ## ######!! ",
"  ##  ## ##  ##  ####  ##    !  ",
"   ####   ### ##  ##    #####!  ",
"                             !  ",
"       !!!!!!!!!!!            ! ",
"                  !!!!        ! ",
"                      !!!!!!!!! ",
"                                "
};
